# xmcd
#
# Track frame offsets:
#	150
#	13240
#	29656
#	45006
#	58610
#	71048
#	82232
#	94658
#	107943
#	125272
#	146164
#	159335
#	173369
#	185784
#	199826
#	213862
#
# Disc length: 3029
#
# Revision: 1
# Processed by: cddbd v1.5.1PL2 Copyright (c) Steve Scherf et al.
# Submitted via: kTunes Lite (development) 1.0patch43.20
#
DISCID=e10bd310
DTITLE=Various Artist - ZMPK03−2
DYEAR=2006
DGENRE=karaoke
TTITLE0=Hank Williams - Your Cheating Heart (zoom)
TTITLE1=Kenny Rogers - The Gambler (zoom)
TTITLE2=Bellamy Brothers - Let Your Love Flow (zoom)
TTITLE3=Charlie Rich - The Most Beautiful Girl In The World (zoom)
TTITLE4=Patsy Cline - Sweet Dreams (zoom)
TTITLE5=Ricky Nelson - Hello Mary Lou (zoom)
TTITLE6=Sutherland Brothers and Quiver - Arms Of Mary (zoom)
TTITLE7=Billie Jo Spears - What I've Got In Mind (zoom)
TTITLE8=Johnny Cash - A Boy Named Sue (zoom)
TTITLE9=Marty Robbins - El Paso (zoom)
TTITLE10=Patsy Cline - Crazy (zoom)
TTITLE11=Hank Williams - Hey Goog Looking (zoom)
TTITLE12=Roger Miller - King Of The Road (zoom)
TTITLE13=Billy Swan - I Can Help (zoom)
TTITLE14=Charlie Rich - Behind Closed Doors (zoom)
TTITLE15=Nillson - Everybody's Talking (zoom)
EXTD=
EXTT0=
EXTT1=
EXTT2=
EXTT3=
EXTT4=
EXTT5=
EXTT6=
EXTT7=
EXTT8=
EXTT9=
EXTT10=
EXTT11=
EXTT12=
EXTT13=
EXTT14=
EXTT15=
PLAYORDER=
